<?xml version="1.0"?>
<svg xmlns="http://www.w3.org/2000/svg" viewBox="0 0 64 64" width="512" height="512"><g id="Bread-healthy-sandwich-food-3" data-name="Bread-healthy-sandwich-food"><path d="M47,45a3,3,0,1,1,3-3A3,3,0,0,1,47,45Zm0-4a1,1,0,1,0,1,1A1,1,0,0,0,47,41Z"/><path d="M47,55a3,3,0,1,1,3-3A3,3,0,0,1,47,55Zm0-4a1,1,0,1,0,1,1A1,1,0,0,0,47,51Z"/><path d="M39,40a3,3,0,1,1,3-3A3,3,0,0,1,39,40Zm0-4a1,1,0,1,0,1,1A1,1,0,0,0,39,36Z"/><path d="M39,50a3,3,0,1,1,3-3A3,3,0,0,1,39,50Zm0-4a1,1,0,1,0,1,1A1,1,0,0,0,39,46Z"/><path d="M13,48a3,3,0,1,1,3-3A3,3,0,0,1,13,48Zm0-4a1,1,0,1,0,1,1A1,1,0,0,0,13,44Z"/><path d="M13,58a3,3,0,1,1,3-3A3,3,0,0,1,13,58Zm0-4a1,1,0,1,0,1,1A1,1,0,0,0,13,54Z"/><path d="M32,57a3,3,0,1,1,3-3A3,3,0,0,1,32,57Zm0-4a1,1,0,1,0,1,1A1,1,0,0,0,32,53Z"/><path d="M44,32a3,3,0,1,0,3-3A3,3,0,0,0,44,32Zm3-1a1,1,0,1,1-1,1A1,1,0,0,1,47,31Z"/><path d="M13,32a3,3,0,1,0,3,3A3,3,0,0,0,13,32Zm0,4a1,1,0,1,1,1-1A1,1,0,0,1,13,36Z"/><path d="M56.387,20.757a5.022,5.022,0,0,0,.137-6.925,6.01,6.01,0,0,0-7.352-7.357,5.007,5.007,0,0,0-6.811.041,27.982,27.982,0,0,0-8.045-4.464,1,1,0,0,0-1.277,1.223A27.082,27.082,0,0,1,33.8,7.181,9,9,0,0,0,32,7a8.718,8.718,0,0,0-1.293.1A9.995,9.995,0,0,0,12,12c0,.19.007.383.021.583A8.03,8.03,0,0,0,7,20a7.887,7.887,0,0,0,.655,3.108c-.219-.01-.439-.028-.655-.028a1,1,0,0,0-1,1V61a1,1,0,0,0,1,1H53a1,1,0,0,0,1-1V24a1.008,1.008,0,0,0-1-.981v-.812A4.958,4.958,0,0,0,56.387,20.757ZM51,23.05a27.005,27.005,0,0,0-3.5.441c-.083-.3-.18-.583-.285-.869l2.06-1.9.034.035A4.976,4.976,0,0,0,51,21.862ZM44.266,12.728a3.276,3.276,0,0,1-.609-.455,3.01,3.01,0,0,1-.336-3.835,2.121,2.121,0,0,1,.337-.411,3,3,0,0,1,4.211-.035c.045.049.085.1.125.154l.087.111a1,1,0,0,0,1.15.3,4.009,4.009,0,0,1,5.21,5.21,1,1,0,0,0,.3,1.152l.1.082.121.092a3.014,3.014,0,0,1,0,4.248,3.09,3.09,0,0,1-4.232.013,3.176,3.176,0,0,1-.468-.622,1,1,0,0,0-.715-.483,1.02,1.02,0,0,0-.826.254L46.356,20.7a12.594,12.594,0,0,0-1.038-1.6L47.9,16.514c1.383-1.382,3.446.619,3.537.71a1,1,0,0,0,1.412-1.416,6.643,6.643,0,0,0-2.641-1.6l1.939-1.939a1,1,0,1,0-1.414-1.414l-2.061,2.061a8.9,8.9,0,0,0-2.187-3.471,1,1,0,0,0-1.415,1.413c.028.029,2.782,2.877,1.415,4.245h0l-2.5,2.5a12.8,12.8,0,0,0-1.56-1.269L44.466,14.3a1,1,0,0,0-.2-1.57Zm-1.04,6.97a10.716,10.716,0,0,1,1.906,3.039,10.44,10.44,0,0,1,.428,1.207A27.431,27.431,0,0,0,40.205,26H37.414l3.943-3.943a1,1,0,0,0,0-1.414,9.033,9.033,0,0,0-1.951-1.482A8.916,8.916,0,0,0,35,18a1,1,0,0,0-1,1v5.586l-3.943-3.943a1,1,0,0,0-1.414,0A9.105,9.105,0,0,0,26,27a1,1,0,0,0,1,1h5.586l-3.943,3.943a1,1,0,0,0,0,1.414,8.951,8.951,0,0,0,1.339,1.1q-.618.762-1.215,1.583A10.983,10.983,0,0,1,35,16a10.978,10.978,0,0,1,8.226,3.7ZM36,24.586V20.07a6.811,6.811,0,0,1,2.42.832,7.011,7.011,0,0,1,.765.5ZM36.882,28q-.444.307-.882.632V28Zm-4.3-2H28.073A7.284,7.284,0,0,1,29.4,22.815ZM34,29.414v.849a33.789,33.789,0,0,0-2.7,2.666c-.165-.1-.329-.21-.486-.328ZM41.2,8.158a5,5,0,0,0,1.045,5.53l-1.3,1.3A9.011,9.011,0,0,0,35.857,7.88a24.138,24.138,0,0,0-.44-3.237A24.759,24.759,0,0,1,41.2,8.158ZM13.372,14.231a1,1,0,0,0,.718-1.1A7.935,7.935,0,0,1,22,4a8.028,8.028,0,0,1,7.253,4.641,1,1,0,0,0,1.138.551,7,7,0,0,1,8.458,5.417,12.984,12.984,0,0,0-11.217,23.1c-.332.519-.658,1.042-.97,1.583-2.552-5.8-6.022-10.319-10.129-13.116a.919.919,0,0,0-.085-.052,17.16,17.16,0,0,0-6.36-2.712A5.875,5.875,0,0,1,9,20,6.022,6.022,0,0,1,13.372,14.231ZM8,60V25.117c.412.03.825.08,1.247.15a15.11,15.11,0,0,1,6.144,2.555c.03.021.061.039.092.057,4.039,2.781,7.559,7.629,9.963,13.678A43.775,43.775,0,0,0,21.029,60Zm44,0H23.011a41.716,41.716,0,0,1,4.395-17.917c.016-.025.031-.052.045-.079a37.538,37.538,0,0,1,2.382-4.035,35.2,35.2,0,0,1,2.423-3.135,31.871,31.871,0,0,1,3.393-3.373A26.547,26.547,0,0,1,47,25.634a24.453,24.453,0,0,1,5-.629Z"/><path d="M18,19V17a6.006,6.006,0,0,0-6,6h2A4,4,0,0,1,18,19Z"/><path d="M22,15V13a2,2,0,0,1,0-4V7a4,4,0,0,0,0,8Z"/></g></svg>
