<svg height="681pt" viewBox="-206 -21 681 681.33464" width="681pt" xmlns="http://www.w3.org/2000/svg"><path d="m228.996094 162.65625c-14.769532-18.457031-22.902344-41.640625-22.902344-65.28125v-14.691406c10.890625-3.863282 18.71875-14.261719 18.71875-26.460938 0-30.953125-25.1875-56.1406248-56.140625-56.1406248h-93.566406c-30.957031 0-56.140625 25.1874998-56.140625 56.1406248 0 12.199219 7.824218 22.597656 18.710937 26.460938v14.691406c0 23.640625-8.132812 46.824219-22.898437 65.28125-17.410156 21.769531-27.003906 49.101562-27.003906 76.976562v352.417969c0 25.792969 20.984374 46.785157 46.785156 46.785157h174.660156c25.792969 0 46.78125-20.992188 46.78125-46.785157 0-10.125 0-342.03125 0-352.417969 0-27.867187-9.589844-55.207031-27.003906-76.976562zm-191.320313-106.433594c0-20.636718 16.789063-37.425781 37.429688-37.425781h93.566406c20.636719 0 37.425781 16.789063 37.425781 37.425781 0 5.160156-4.199218 9.359375-9.359375 9.359375h-149.703125c-5.160156 0-9.359375-4.199219-9.359375-9.359375zm199.613281 535.828125c0 15.476563-12.59375 28.070313-28.070312 28.070313h-174.660156c-15.476563 0-28.070313-12.59375-28.070313-28.070313v-76.101562h18.714844v76.101562c0 5.125 4.171875 9.355469 9.355469 9.355469h174.660156c5.1875 0 9.355469-4.234375 9.355469-9.355469v-48.03125c0-5.152343-4.191407-9.355469-9.355469-9.355469-5.167969 0-9.359375 4.203126-9.359375 9.355469v38.675781h-155.945313v-66.746093h193.375zm0-94.816406c-11.671874 0-219.421874 0-230.800781 0 0-5.484375 0-178.234375 0-180.894531h230.800781zm0-199.609375h-18.714843v-57.984375c-.015625-19.410156-6.6875-38.453125-18.800781-53.597656-17.140626-21.433594-27.660157-47.230469-30.40625-74.640625-.535157-5.296875-5.300782-8.949219-10.242188-8.371094-5.101562.511719-8.894531 5.023438-8.367188 10.242188 1.535157 15.324218 5.261719 30.351562 11.078126 44.664062 5.851562 14.359375 13.695312 27.746094 23.328124 39.796875 9.480469 11.839844 14.695313 26.722656 14.695313 41.90625v57.984375h-193.371094v-57.992188c0-23.640624 8.132813-46.820312 22.898438-65.28125 17.417969-21.765624 27.003906-49.101562 27.003906-76.976562v-13.082031h18.71875l-.003906 13.074219c.007812 32.113281-11.042969 63.601562-31.101563 88.675781-12.117187 15.160156-18.800781 34.1875-18.800781 53.597656v29.914063c0 5.167968 4.191406 9.359374 9.355469 9.359374 5.152344 0 9.355468-4.191406 9.355468-9.359374v-20.558594h127.875c5.167969 0 9.359376-4.207032 9.359376-9.355469 0-5.167969-4.191407-9.359375-9.359376-9.359375h-127.207031c1.675781-11.851562 6.507813-23.15625 14.027344-32.546875 22.703125-28.382813 35.207031-64.027344 35.207031-100.367187v-13.074219h93.5625v13.082031c0 27.875 9.589844 55.207031 27.003906 76.972656 14.769532 18.460938 22.90625 41.644532 22.90625 65.285156zm0 0"/><path d="m94.949219 410.160156c6.972656 3.167969 14.96875 1.707032 20.375-3.699218 5.414062-5.410157 6.859375-13.40625 3.699219-20.375-18.183594-40.074219-23.761719-45.652344-25.863282-47.753907-12.671875-12.664062-33.289062-12.675781-45.964844 0-12.671874 12.671875-12.671874 33.296875 0 45.964844 2.101563 2.101563 7.679688 7.679687 47.753907 25.863281zm-34.523438-58.597656c5.378907-5.367188 14.121094-5.367188 19.5 0 .871094.875 5.957031 6.910156 21.476563 40.976562-34.0625-15.511718-40.105469-20.605468-40.976563-21.472656-5.375-5.375-5.375-14.121094 0-19.503906zm0 0"/><path d="m137.558594 419.761719c-2.964844 0-10.855469 0-52.054688 15.472656-7.164062 2.695313-11.792968 9.375-11.792968 17.027344 0 7.644531 4.628906 14.332031 11.792968 17.019531 41.199219 15.480469 49.089844 15.480469 52.054688 15.480469 17.921875 0 32.5-14.582031 32.5-32.507813 0-17.917968-14.574219-32.492187-32.5-32.492187zm0 46.285156c-1.226563 0-9.085938-.667969-44.15625-13.785156 35.0625-13.121094 42.929687-13.789063 44.15625-13.789063 7.605468 0 13.789062 6.1875 13.789062 13.789063 0 7.601562-6.183594 13.785156-13.789062 13.785156zm0 0"/><path d="m150.617188 402.300781c12.675781 12.675781 33.289062 12.667969 45.964843 0 12.667969-12.671875 12.667969-33.289062 0-45.964843-2.105469-2.101563-7.683593-7.679688-47.753906-25.863282-6.96875-3.164062-14.972656-1.710937-20.382813 3.699219-5.40625 5.410156-6.859374 13.40625-3.695312 20.378906 18.183594 40.070313 23.765625 45.648438 25.867188 47.75zm32.726562-32.734375c5.382812 5.378906 5.382812 14.128906 0 19.503906-5.375 5.375-14.117188 5.375-19.496094 0-.867187-.875-5.957031-6.910156-21.472656-40.976562 34.058594 15.515625 40.101562 20.605469 40.96875 21.472656zm0 0"/></svg>