<svg height="682pt" viewBox="-21 -35 682.66452 682" width="682pt" xmlns="http://www.w3.org/2000/svg"><path d="m433.347656 364.570312c-.960937-.3125-1.953125-.476562-2.964844-.476562-10.550781 0-13 14.941406-2.949218 18.273438 44.113281 14.640624 73.738281 55.699218 73.710937 102.175781 0 59.519531-48.144531 107.601562-107.609375 107.625h-.203125c-43.449219 0-203.015625-59.585938-243.007812-74.609375-14.769531-5.601563-22.890625-18.628906-22.890625-33.011719 0-14.269531 8.019531-27.394531 22.890625-33.011719 55.347656-20.792968 103.085937-37.628906 141.886719-50.054687 21.863281-6.992188 78.109374-24.5625 101.121093-24.5625h.203125c5.164063 0 9.375-4.199219 9.375-9.375 0-5.160157-4.210937-9.375-9.375-9.375-48.082031.175781-203.542968 58.445312-249.8125 75.8125-22.265625 8.339843-35.039062 28.621093-35.039062 50.566406 0 21.742187 12.597656 42.152344 35.039062 50.5625 46.328125 17.394531 201.921875 75.632813 249.8125 75.808594 51.632813-.039063 96.964844-31.121094 116.4375-77.1875 6.589844-15.574219 9.921875-32.125 9.921875-49.1875 0-55.835938-36.222656-103.28125-86.546875-119.972657zm0 0"/><path d="m327.8125 327.21875c15.050781-15.050781 21.015625-38.429688 10.960938-60.539062-24.535157-54.0625-46.523438-100.007813-65.347657-136.5625-12.265625-23.796876-38.984375-74.816407-57.683593-93.683594-49.355469-49.351563-129.351563-49.363282-178.71875 0-39.144532 39.144531-47.640626 98.203125-23.621094 146.035156 2.367187 4.71875 8.035156 6.46875 12.574218 4.171875 4.621094-2.324219 6.496094-7.957031 4.171876-12.582031-19.914063-39.707032-14.011719-90.214844 20.136718-124.363282 42.011719-42.011718 110.074219-42.105468 152.203125 0 30.578125 30.242188 101.507813 185.710938 119.214844 224.738282 6.503906 14.382812 3.027344 29.316406-7.164063 39.511718-10.191406 10.1875-25.132812 13.671876-39.527343 7.160157-53.929688-24.46875-141.015625-65.128907-191.699219-95.738281-15.625-9.398438-27.347656-17.734376-33.027344-23.472657-3.65625-3.660156-9.578125-3.679687-13.261718 0-3.644532 3.648438-3.644532 9.601563 0 13.261719 7.300781 7.253906 18.589843 15.347656 36.601562 26.261719 39.238281 23.691406 104.386719 56.25 193.648438 96.761719 21.777343 9.898437 45.191406 4.382812 60.539062-10.960938zm0 0"/><path d="m636.644531 187.84375c-2.246093-9.601562-5.625-18.925781-10.035156-27.710938-1.601563-3.203124-4.816406-5.175781-8.390625-5.175781-1.457031 0-2.875.335938-4.199219 1-4.613281 2.3125-6.488281 7.960938-4.171875 12.574219 0 .015625.011719.015625.011719.015625 7.449219 14.863281 11.386719 31.546875 11.386719 48.246094-.011719 28.75-11.214844 55.777343-31.527344 76.113281-20.320312 20.3125-47.347656 31.5-76.097656 31.511719-28.75-.011719-55.777344-11.199219-76.097656-31.519531-5.738282-5.679688-14.078126-17.402344-23.476563-33.027344-29.0625-48.078125-68.101563-130.789063-95.738281-191.699219-2.203125-4.851563-3.308594-9.839844-3.308594-14.824219-.015625-9.160156 3.710938-17.941406 10.472656-24.703125 6.746094-6.757812 15.527344-10.472656 24.703125-10.472656 4.984375 0 9.96875 1.121094 14.808594 3.308594 53.765625 24.40625 99.421875 46.25 135.726563 64.953125 22.476562 11.5625 41.3125 21.921875 55.988281 30.800781 15.597656 9.375 27.320312 17.714844 33.019531 23.476563 1.777344 1.761718 4.125 2.734374 6.640625 2.734374 2.5 0 4.847656-.972656 6.625-2.734374 3.648437-3.664063 3.648437-9.617188 0-13.261719-7.3125-7.265625-18.597656-15.367188-36.601563-26.28125-39.234374-23.6875-104.382812-56.234375-193.644531-96.761719-7.277343-3.3125-14.855469-4.984375-22.53125-4.984375h-.03125c-7.214843.039063-14.226562 1.488281-20.851562 4.339844-6.402344 2.734375-12.164063 6.644531-17.125 11.609375-4.964844 4.960937-8.875 10.722656-11.613281 17.125-2.847657 6.625-4.3125 13.636718-4.335938 20.851562-.015625 7.675782 1.660156 15.261719 4.984375 22.5625 24.550781 54.109375 46.539063 100.0625 65.351563 136.5625 11.761718 22.835938 22.324218 42.050782 31.410156 57.097656 10.914062 18 19.015625 29.289063 26.273437 36.585938 12.042969 12.050781 26.105469 21.386719 41.792969 27.75 15.148438 6.152344 31.136719 9.261719 47.523438 9.261719h.089843c16.386719 0 32.371094-3.109375 47.523438-9.261719 15.671875-6.363281 29.734375-15.699219 41.785156-27.75 12.050781-12.046875 21.386719-26.109375 27.75-41.808594 6.152344-15.152344 9.261719-31.152344 9.261719-47.550781 0-9.738281-1.125-19.476563-3.351563-28.953125zm0 0"/><path d="m64.550781 139.871094c-3.175781 4.089844-2.429687 9.980468 1.664063 13.152344l166.894531 129.417968c4.082031 3.171875 9.976563 2.4375 13.148437-1.664062 3.175782-4.089844 2.425782-9.980469-1.660156-13.148438l-166.894531-129.417968c-4.089844-3.175782-9.980469-2.433594-13.152344 1.660156zm0 0"/><path d="m289.710938 268.3125c1.9375 0 3.890624-.601562 5.566406-1.839844 4.164062-3.078125 5.042968-8.945312 1.96875-13.113281l-132.449219-179.183594c-3.078125-4.164062-8.949219-5.042969-13.109375-1.96875-4.164062 3.082031-5.042969 8.953125-1.96875 13.117188l132.449219 179.183593c1.835937 2.484376 4.671875 3.804688 7.542969 3.804688zm0 0"/><path d="m125.867188 124.792969c-3.660157 3.660156-3.660157 9.59375 0 13.253906l100.53125 100.539063c3.667968 3.65625 9.601562 3.65625 13.261718 0 3.660156-3.667969 3.660156-9.601563 0-13.261719l-100.535156-100.53125c-3.664062-3.664063-9.59375-3.664063-13.257812 0zm0 0"/><path d="m572.214844 206.042969c2.796875 0 5.566406-1.246094 7.417968-3.628907 3.171876-4.09375 2.425782-9.980468-1.667968-13.15625l-166.890625-129.417968c-4.09375-3.171875-9.976563-2.429688-13.152344 1.664062-3.171875 4.089844-2.425781 9.976563 1.660156 13.152344l166.894531 129.417969c1.710938 1.328125 3.730469 1.96875 5.738282 1.96875zm0 0"/><path d="m348.90625 75.808594c-4.167969 3.078125-5.046875 8.949218-1.96875 13.113281l132.445312 179.183594c1.839844 2.488281 4.671876 3.804687 7.550782 3.804687 1.933594 0 3.886718-.601562 5.558594-1.835937 4.167968-3.082031 5.046874-8.949219 1.96875-13.113281l-132.445313-179.1875c-3.078125-4.164063-8.949219-5.042969-13.109375-1.964844zm0 0"/><path d="m511.683594 220.234375c2.402344 0 4.800781-.910156 6.628906-2.742187 3.664062-3.664063 3.664062-9.59375 0-13.257813l-100.53125-100.53125c-3.660156-3.664063-9.59375-3.664063-13.257812 0-3.660157 3.660156-3.660157 9.59375 0 13.257813l100.535156 100.53125c1.828125 1.832031 4.226562 2.742187 6.625 2.742187zm0 0"/><path d="m195.21875 510.859375c-.648438 5.136719 2.988281 9.828125 8.125 10.480469l209.519531 26.496094c.402344.050781.800781.074218 1.191407.074218 4.65625 0 8.691406-3.460937 9.289062-8.199218.648438-5.136719-2.988281-9.828126-8.121094-10.476563l-209.527344-26.5c-5.140624-.660156-9.828124 2.988281-10.476562 8.125zm0 0"/><path d="m398.914062 422.375-220.355468 33.046875c-5.121094.765625-8.652344 5.539063-7.886719 10.664063.699219 4.648437 4.699219 7.980468 9.261719 7.980468.460937 0 .929687-.03125 1.402344-.101562l220.355468-33.050782c5.125-.765624 8.648438-5.542968 7.882813-10.660156-.765625-5.121094-5.542969-8.652344-10.660157-7.878906zm0 0"/><path d="m381.273438 495.0625c5.179687 0 9.375-4.191406 9.375-9.375 0-5.175781-4.195313-9.375-9.375-9.375h-142.171876c-5.183593 0-9.375 4.199219-9.375 9.375 0 5.183594 4.191407 9.375 9.375 9.375zm0 0"/></svg>