<?xml version="1.0"?>
<svg xmlns="http://www.w3.org/2000/svg" viewBox="0 0 64 64" width="512" height="512"><g id="outline"><path d="M32,2A30,30,0,1,0,62,32,30.034,30.034,0,0,0,32,2Zm0,2A27.984,27.984,0,0,1,59.837,35H54a1,1,0,0,0-1,1v3a4,4,0,0,1-8,0V33a.882.882,0,0,0-.03-.231c.018-.254.03-.51.03-.769a13,13,0,0,0-26,0c0,.256.012.508.029.76A1,1,0,0,0,19,33V43a4,4,0,0,1-8,0V37a1,1,0,0,0-1-1H4.29A27.982,27.982,0,0,1,32,4ZM21,32a11,11,0,0,1,22,0c0,.31-.022.614-.047.917v0a10.991,10.991,0,0,1-21.906,0v0C21.022,32.614,21,32.31,21,32ZM32,60A28.043,28.043,0,0,1,4.654,38H9v5a6,6,0,0,0,12,0V38.9a12.965,12.965,0,0,0,22,0V39a5.952,5.952,0,0,0,.81,3C40.011,47.89,32.081,48,32,48v2c.37,0,8.673-.088,13.152-6.4A5.994,5.994,0,0,0,55,39V37h4.544A28.04,28.04,0,0,1,32,60Z"/><path d="M14,35a3,3,0,1,0-3-3A3,3,0,0,0,14,35Zm0-4a1,1,0,1,1-1,1A1,1,0,0,1,14,31Z"/><path d="M29,17a3,3,0,1,0-3-3A3,3,0,0,0,29,17Zm0-4a1,1,0,1,1-1,1A1,1,0,0,1,29,13Z"/><path d="M43,17a4,4,0,1,0-4-4A4,4,0,0,0,43,17Zm0-6a2,2,0,1,1-2,2A2,2,0,0,1,43,11Z"/><path d="M15,22a4,4,0,1,0-4-4A4,4,0,0,0,15,22Zm0-6a2,2,0,1,1-2,2A2,2,0,0,1,15,16Z"/><path d="M53,32a4,4,0,1,0-4-4A4,4,0,0,0,53,32Zm0-6a2,2,0,1,1-2,2A2,2,0,0,1,53,26Z"/><rect x="19" y="11" width="2" height="2"/><rect x="7" y="26" width="2" height="2"/><rect x="14" y="41" width="2" height="2"/><rect x="44" y="20" width="2" height="2"/><rect x="34" y="7" width="2" height="2"/><rect x="47" y="37" width="2" height="2"/><rect x="28" y="48" width="2" height="2"/></g></svg>
