<svg width="468" height="120" viewBox="0 0 468 120" fill="none" xmlns="http://www.w3.org/2000/svg">
<g clip-path="url(#clip0)">
<path d="M54.0634 25.8319H52.3426V27.4135H54.0634V25.8319Z" fill="black"/>
<path d="M47.18 25.8319H45.4592V27.4135H47.18V25.8319Z" fill="black"/>
<path d="M40.2249 25.8319H38.5041V27.4135H40.2249V25.8319Z" fill="black"/>
<path d="M67.902 25.8319H66.1812V27.4135H67.902V25.8319Z" fill="black"/>
<path d="M61.0185 25.8319H59.2977V27.4135H61.0185V25.8319Z" fill="black"/>
<path d="M48.0405 33.7397H46.3196V35.3212H48.0405V33.7397Z" fill="black"/>
<path d="M60.1581 33.7397H58.4373V35.3212H60.1581V33.7397Z" fill="black"/>
<path d="M54.0634 39.341H52.3426V40.9226H54.0634V39.341Z" fill="black"/>
<path d="M75.6458 22.6689V20.2965C75.6458 18.1219 73.7098 16.3427 71.3436 16.3427H35.0624C32.6962 16.3427 30.7602 18.1219 30.7602 20.2965V22.6689H29.0394V24.2504H32.6962L39.5079 43.7562C40.0098 45.2718 41.4438 46.3262 43.1647 46.458L40.1532 65.5684H66.3245L63.313 46.458C64.9622 46.2603 66.3962 45.2718 66.9698 43.7562L73.7815 24.2504H77.4383V22.6689H75.6458ZM36.7832 30.5766H40.5834L38.5041 35.5848L36.7832 30.5766ZM41.157 43.229L39.3645 38.0231L41.157 33.6079L45.8894 44.8764H43.5949C42.5194 44.8764 41.5155 44.2175 41.157 43.229ZM62.0224 49.6211L62.8111 54.3657H43.6666L44.4553 49.6211H58.4373V48.0395H44.6704L44.9572 46.458H61.5921L61.879 48.0395H60.2298V49.6211H62.0224ZM58.4373 57.5288L60.0147 59.967H56.8598L58.4373 57.5288ZM55.7843 58.4514L54.2068 56.0132H57.3617L55.7843 58.4514ZM48.0404 57.5288L49.6179 59.967H46.463L48.0404 57.5288ZM45.4592 58.4514L43.8817 56.0132H47.0366L45.4592 58.4514ZM58.007 44.8764H48.399L53.203 33.542L58.007 44.8764ZM53.7766 30.5766H64.6753L59.2977 43.4926L53.7766 30.5766ZM47.18 43.4926L41.7306 30.5766H52.6294L47.18 43.4926ZM43.7383 63.9209H42.1609L42.5194 61.5486H43.7383V63.9209ZM42.7345 59.967L43.093 57.9242L44.4553 59.967H42.7345ZM47.18 63.9209H45.4592V61.5486H47.18V63.9209ZM50.6217 63.9209H48.9009V61.5486H50.6217V63.9209ZM49.0443 56.0132H52.1992L50.6217 58.4514L49.0443 56.0132ZM54.0634 63.9209H52.3426V61.5486H54.0634V63.9209ZM51.6255 59.967L53.203 57.5288L54.7804 59.967H51.6255ZM57.5051 63.9209H55.7843V61.5486H57.5051V63.9209ZM61.0185 63.9209H59.2977V61.5486H61.0185V63.9209ZM59.4411 56.0132H62.596L61.0185 58.4514L59.4411 56.0132ZM64.3168 63.9209H62.7394V61.5486H63.9583L64.3168 63.9209ZM63.3847 57.9242L63.7432 59.967H62.0941L63.3847 57.9242ZM65.249 43.229C64.8904 44.2175 63.8866 44.8764 62.8111 44.8764H60.5166L65.3207 33.6079L67.1132 38.0231L65.249 43.229ZM67.9736 35.5848L65.966 30.6425H69.7662L67.9736 35.5848ZM70.2681 28.9951H36.2096L34.5604 24.2504H71.9173L70.2681 28.9951ZM73.9249 22.6689H32.4811V20.2965C32.4811 18.9786 33.6283 17.9242 35.0624 17.9242H71.3436C72.7777 17.9242 73.9249 18.9786 73.9249 20.2965V22.6689Z" fill="black"/>
<path d="M53.203 114.267C82.6009 114.267 106.406 92.3888 106.406 65.3707H0C0 92.3888 23.8051 114.267 53.203 114.267Z" fill="black"/>
<path d="M68.1171 79.2751C61.0902 75.1235 59.3694 72.2899 60.66 65.3707H57.9353C57.5768 71.6309 57.7202 77.5618 66.1811 80.9884C64.7471 81.911 63.8866 82.5041 62.3092 83.5585C59.6562 80.5931 57.1466 77.6936 54.4936 74.8599C54.0634 74.3987 53.4898 73.7397 53.0596 73.8056C52.4143 73.9374 51.769 74.4646 51.3387 74.9917C48.6858 77.8254 46.1045 80.659 43.3798 83.6244C41.8024 82.4382 40.9419 81.8451 40.0815 81.1861C47.6819 75.5848 48.399 74.3987 47.897 68.0066C47.8253 67.2158 46.9649 66.425 46.3913 65.7001C45.8894 65.766 45.4592 65.8319 44.9573 65.8319C46.8215 72.9489 42.8779 76.771 36.9266 79.7364C34.1302 81.1202 31.4055 82.8995 29.2545 85.0082C27.5336 86.7216 26.6732 89.2916 25.3826 91.4662C25.8128 91.7298 26.243 91.9934 26.6732 92.3229C27.3902 91.8616 28.179 91.4662 28.7526 90.8731C30.6168 88.6985 32.266 86.3921 34.3453 84.3492C36.4247 82.2405 38.5041 82.7018 40.0098 84.7446C38.7192 87.0511 37.5002 89.2916 36.2096 91.4662C36.7115 91.7957 37.1417 92.0593 37.6436 92.3888C39.1494 90.7413 40.5834 89.0939 42.1609 87.3805C45.029 91.9275 45.029 91.9275 47.0366 91.4003C46.2479 89.3575 45.5309 87.3146 44.6704 85.14C45.746 84.3492 46.8215 83.6244 48.6858 82.3064C49.6896 85.2059 50.4783 87.6441 51.4104 90.0165C51.6973 90.7413 52.4143 91.4003 52.9879 92.0593C53.4898 91.3344 54.1351 90.6754 54.4936 89.8847C55.4258 87.5123 56.2145 85.0741 57.1466 82.3723C58.4373 83.229 59.0109 83.6244 59.5845 83.9539C60.1581 84.3492 60.7317 84.6787 60.9468 84.8105C60.0147 87.4464 59.226 89.4893 58.3656 91.8616C62.9545 92.5206 60.8751 87.8418 64.03 87.4464C64.6754 88.3031 65.3207 89.3575 66.1094 90.2141C66.7547 90.939 67.6151 91.598 68.4039 92.257C68.8341 91.9275 69.1926 91.6639 69.6228 91.3344C68.3322 89.0939 67.0415 86.9193 65.3207 84.0856C66.9698 83.8221 69.0492 82.8336 69.7662 83.3608C72.4192 85.4036 74.5702 87.9736 76.8647 90.3459C77.51 91.0049 78.2271 91.6639 78.8724 92.3229C79.3743 91.9934 79.8762 91.6639 80.3781 91.2685C79.0875 89.0939 78.1554 86.5898 76.2911 84.8764C73.9966 82.6359 70.9851 80.9885 68.1171 79.2751ZM52.9162 84.6128C52.0558 83.3608 51.3388 82.3064 50.4066 80.9884C51.1236 80.1318 51.9124 79.2092 52.8445 78.1548C53.8483 79.2751 54.5653 80 55.3541 80.8567C54.637 82.1087 53.7766 83.2949 52.9162 84.6128Z" fill="white"/>
<path d="M181.876 77L164.98 49.928H157.204V77H146.26V9.224H170.164C177.908 9.224 183.764 11.112 187.732 14.888C191.764 18.664 193.78 23.656 193.78 29.864C193.78 35.176 192.276 39.528 189.268 42.92C186.324 46.312 182.036 48.488 176.404 49.448L194.164 77H181.876ZM157.204 42.152H169.3C178.132 42.152 182.548 38.248 182.548 30.44C182.548 26.728 181.46 23.848 179.284 21.8C177.172 19.688 173.844 18.632 169.3 18.632H157.204V42.152ZM235.027 8.36C241.299 8.36 246.963 9.832 252.019 12.776C257.139 15.72 261.139 19.848 264.019 25.16C266.963 30.408 268.435 36.36 268.435 43.016C268.435 49.672 266.963 55.656 264.019 60.968C261.139 66.216 257.139 70.344 252.019 73.352C246.963 76.296 241.299 77.768 235.027 77.768C228.691 77.768 222.963 76.296 217.843 73.352C212.787 70.344 208.787 66.216 205.843 60.968C202.899 55.656 201.427 49.672 201.427 43.016C201.427 36.36 202.899 30.408 205.843 25.16C208.787 19.848 212.787 15.72 217.843 12.776C222.963 9.832 228.691 8.36 235.027 8.36ZM235.027 18.536C230.675 18.536 226.803 19.528 223.411 21.512C220.019 23.496 217.363 26.344 215.443 30.056C213.587 33.768 212.659 38.088 212.659 43.016C212.659 47.944 213.587 52.264 215.443 55.976C217.363 59.688 220.019 62.536 223.411 64.52C226.803 66.504 230.675 67.496 235.027 67.496C239.315 67.496 243.123 66.504 246.451 64.52C249.843 62.536 252.467 59.688 254.323 55.976C256.243 52.264 257.203 47.944 257.203 43.016C257.203 38.088 256.243 33.768 254.323 30.056C252.467 26.344 249.843 23.496 246.451 21.512C243.123 19.528 239.315 18.536 235.027 18.536ZM310.871 8.36C317.143 8.36 322.807 9.832 327.863 12.776C332.983 15.72 336.983 19.848 339.863 25.16C342.807 30.408 344.279 36.36 344.279 43.016C344.279 49.672 342.807 55.656 339.863 60.968C336.983 66.216 332.983 70.344 327.863 73.352C322.807 76.296 317.143 77.768 310.871 77.768C304.535 77.768 298.807 76.296 293.687 73.352C288.631 70.344 284.631 66.216 281.687 60.968C278.743 55.656 277.271 49.672 277.271 43.016C277.271 36.36 278.743 30.408 281.687 25.16C284.631 19.848 288.631 15.72 293.687 12.776C298.807 9.832 304.535 8.36 310.871 8.36ZM310.871 18.536C306.519 18.536 302.647 19.528 299.255 21.512C295.863 23.496 293.207 26.344 291.287 30.056C289.431 33.768 288.503 38.088 288.503 43.016C288.503 47.944 289.431 52.264 291.287 55.976C293.207 59.688 295.863 62.536 299.255 64.52C302.647 66.504 306.519 67.496 310.871 67.496C315.159 67.496 318.967 66.504 322.295 64.52C325.687 62.536 328.311 59.688 330.167 55.976C332.087 52.264 333.047 47.944 333.047 43.016C333.047 38.088 332.087 33.768 330.167 30.056C328.311 26.344 325.687 23.496 322.295 21.512C318.967 19.528 315.159 18.536 310.871 18.536ZM398.907 9.224V18.056H379.995V77H368.955V18.056H350.139V9.224H398.907ZM451.617 58.952C451.617 62.28 450.817 65.384 449.217 68.264C447.617 71.08 445.185 73.352 441.921 75.08C438.657 76.808 434.657 77.672 429.921 77.672C425.313 77.672 421.185 76.872 417.537 75.272C413.889 73.608 410.977 71.304 408.801 68.36C406.625 65.416 405.377 62.024 405.057 58.184H416.769C417.089 61.128 418.337 63.656 420.513 65.768C422.753 67.88 425.729 68.936 429.441 68.936C432.769 68.936 435.329 68.04 437.121 66.248C438.977 64.456 439.905 62.152 439.905 59.336C439.905 56.904 439.233 54.92 437.889 53.384C436.545 51.784 434.881 50.536 432.897 49.64C430.913 48.744 428.193 47.72 424.737 46.568C420.513 45.224 417.057 43.88 414.369 42.536C411.745 41.192 409.505 39.24 407.649 36.68C405.793 34.12 404.865 30.76 404.865 26.6C404.865 22.952 405.761 19.752 407.553 17C409.345 14.248 411.905 12.136 415.233 10.664C418.561 9.128 422.401 8.36 426.753 8.36C433.665 8.36 439.137 10.024 443.169 13.352C447.265 16.68 449.601 21.032 450.177 26.408H438.369C437.921 23.848 436.705 21.672 434.721 19.88C432.801 18.024 430.145 17.096 426.753 17.096C423.681 17.096 421.217 17.896 419.361 19.496C417.505 21.032 416.577 23.272 416.577 26.216C416.577 28.52 417.217 30.44 418.497 31.976C419.777 33.448 421.377 34.632 423.297 35.528C425.281 36.36 427.969 37.352 431.361 38.504C435.649 39.848 439.137 41.224 441.825 42.632C444.577 43.976 446.881 45.96 448.737 48.584C450.657 51.208 451.617 54.664 451.617 58.952Z" fill="black"/>
<path d="M151.579 101.949H144.427L143.131 105.621H140.203L146.443 88.941H149.587L155.803 105.621H152.875L151.579 101.949ZM150.811 99.837L148.003 91.917L145.195 99.837H150.811ZM164.003 89.661C162.931 89.613 162.179 89.789 161.747 90.189C161.315 90.573 161.099 91.237 161.099 92.181V92.397H164.003V94.749H161.099V105.621H158.339V94.749H156.539V92.397H158.339V91.965C158.339 90.349 158.811 89.141 159.755 88.341C160.699 87.525 162.115 87.165 164.003 87.261V89.661ZM168.938 94.989C169.386 94.125 170.026 93.445 170.858 92.949C171.69 92.437 172.65 92.181 173.738 92.181V95.157H172.922C171.722 95.157 170.754 95.453 170.018 96.045C169.298 96.621 168.938 97.581 168.938 98.925V105.621H166.202V92.397H168.938V94.989ZM175.404 88.557C175.404 88.093 175.564 87.709 175.884 87.405C176.204 87.101 176.628 86.949 177.156 86.949C177.684 86.949 178.108 87.101 178.428 87.405C178.764 87.709 178.932 88.093 178.932 88.557C178.932 89.021 178.764 89.397 178.428 89.685C178.108 89.973 177.684 90.117 177.156 90.117C176.628 90.117 176.204 89.973 175.884 89.685C175.564 89.397 175.404 89.021 175.404 88.557ZM178.524 92.397V105.621H175.788V92.397H178.524ZM187.715 92.229C189.427 92.229 190.843 92.685 191.963 93.597C193.083 94.493 193.779 95.717 194.051 97.269H191.147C190.987 96.437 190.595 95.789 189.971 95.325C189.363 94.845 188.595 94.605 187.667 94.605C186.611 94.605 185.731 94.981 185.027 95.733C184.323 96.469 183.971 97.557 183.971 98.997C183.971 100.437 184.323 101.533 185.027 102.285C185.731 103.037 186.611 103.413 187.667 103.413C188.595 103.413 189.363 103.173 189.971 102.693C190.595 102.213 190.987 101.557 191.147 100.725H194.051C193.779 102.277 193.083 103.509 191.963 104.421C190.843 105.333 189.427 105.789 187.715 105.789C186.435 105.789 185.299 105.517 184.307 104.973C183.331 104.429 182.563 103.645 182.003 102.621C181.443 101.597 181.163 100.389 181.163 98.997C181.163 97.621 181.443 96.421 182.003 95.397C182.563 94.373 183.331 93.589 184.307 93.045C185.299 92.501 186.435 92.229 187.715 92.229ZM201.998 92.229C203.198 92.229 204.222 92.525 205.07 93.117C205.918 93.709 206.518 94.493 206.87 95.469V92.397H209.606V105.621H206.87V102.549C206.518 103.525 205.918 104.309 205.07 104.901C204.222 105.493 203.198 105.789 201.998 105.789C200.846 105.789 199.814 105.517 198.902 104.973C198.006 104.429 197.302 103.645 196.79 102.621C196.278 101.597 196.022 100.389 196.022 98.997C196.022 97.621 196.278 96.421 196.79 95.397C197.302 94.373 198.006 93.589 198.902 93.045C199.814 92.501 200.846 92.229 201.998 92.229ZM202.838 94.629C201.622 94.629 200.646 95.021 199.91 95.805C199.19 96.573 198.83 97.637 198.83 98.997C198.83 100.357 199.19 101.429 199.91 102.213C200.646 102.981 201.622 103.365 202.838 103.365C203.606 103.365 204.294 103.189 204.902 102.837C205.51 102.469 205.99 101.957 206.342 101.301C206.694 100.645 206.87 99.877 206.87 98.997C206.87 98.133 206.694 97.373 206.342 96.717C205.99 96.045 205.51 95.533 204.902 95.181C204.294 94.813 203.606 94.629 202.838 94.629ZM220.281 92.181C221.817 92.181 223.049 92.677 223.977 93.669C224.905 94.661 225.369 96.077 225.369 97.917V105.621H222.633V98.205C222.633 97.021 222.329 96.109 221.721 95.469C221.113 94.813 220.281 94.485 219.225 94.485C218.137 94.485 217.265 94.837 216.609 95.541C215.953 96.229 215.625 97.245 215.625 98.589V105.621H212.889V92.397H215.625V95.301C215.977 94.309 216.569 93.541 217.401 92.997C218.233 92.453 219.193 92.181 220.281 92.181ZM235.898 88.677L240.77 102.693L245.666 88.677H248.642L242.522 105.621H239.018L232.922 88.677H235.898ZM262.959 98.373C262.959 98.821 262.927 99.213 262.863 99.549H252.687C252.735 100.909 253.111 101.917 253.815 102.573C254.519 103.229 255.391 103.557 256.431 103.557C257.343 103.557 258.111 103.325 258.735 102.861C259.375 102.397 259.767 101.781 259.911 101.013H262.839C262.663 101.941 262.295 102.765 261.735 103.485C261.175 104.205 260.447 104.773 259.551 105.189C258.655 105.589 257.655 105.789 256.551 105.789C255.271 105.789 254.135 105.517 253.143 104.973C252.167 104.429 251.399 103.645 250.839 102.621C250.279 101.597 249.999 100.389 249.999 98.997C249.999 97.621 250.279 96.421 250.839 95.397C251.399 94.373 252.167 93.589 253.143 93.045C254.135 92.501 255.271 92.229 256.551 92.229C257.847 92.229 258.975 92.501 259.935 93.045C260.911 93.573 261.655 94.309 262.167 95.253C262.695 96.181 262.959 97.221 262.959 98.373ZM260.199 98.301C260.231 97.437 260.079 96.717 259.743 96.141C259.423 95.549 258.975 95.117 258.399 94.845C257.839 94.557 257.223 94.413 256.551 94.413C255.479 94.413 254.583 94.741 253.863 95.397C253.143 96.053 252.751 97.021 252.687 98.301H260.199ZM270.904 92.229C272.104 92.229 273.128 92.525 273.976 93.117C274.824 93.709 275.424 94.493 275.776 95.469V92.397H278.512V105.765C278.512 106.997 278.256 108.085 277.744 109.029C277.248 109.989 276.528 110.741 275.584 111.285C274.64 111.829 273.52 112.101 272.224 112.101C270.368 112.101 268.864 111.661 267.712 110.781C266.576 109.901 265.864 108.709 265.576 107.205H268.288C268.512 107.989 268.944 108.597 269.584 109.029C270.224 109.477 271.04 109.701 272.032 109.701C273.12 109.701 274.016 109.365 274.72 108.693C275.424 108.021 275.776 107.045 275.776 105.765V102.549C275.424 103.525 274.824 104.309 273.976 104.901C273.128 105.493 272.104 105.789 270.904 105.789C269.752 105.789 268.72 105.517 267.808 104.973C266.912 104.429 266.208 103.645 265.696 102.621C265.184 101.597 264.928 100.389 264.928 98.997C264.928 97.621 265.184 96.421 265.696 95.397C266.208 94.373 266.912 93.589 267.808 93.045C268.72 92.501 269.752 92.229 270.904 92.229ZM271.744 94.629C270.528 94.629 269.552 95.021 268.816 95.805C268.096 96.573 267.736 97.637 267.736 98.997C267.736 100.357 268.096 101.429 268.816 102.213C269.552 102.981 270.528 103.365 271.744 103.365C272.512 103.365 273.2 103.189 273.808 102.837C274.416 102.469 274.896 101.957 275.248 101.301C275.6 100.645 275.776 99.877 275.776 98.997C275.776 98.133 275.6 97.373 275.248 96.717C274.896 96.045 274.416 95.533 273.808 95.181C273.2 94.813 272.512 94.629 271.744 94.629ZM287.1 92.229C288.3 92.229 289.324 92.525 290.172 93.117C291.02 93.709 291.62 94.493 291.972 95.469V92.397H294.708V105.621H291.972V102.549C291.62 103.525 291.02 104.309 290.172 104.901C289.324 105.493 288.3 105.789 287.1 105.789C285.948 105.789 284.916 105.517 284.004 104.973C283.108 104.429 282.404 103.645 281.892 102.621C281.38 101.597 281.124 100.389 281.124 98.997C281.124 97.621 281.38 96.421 281.892 95.397C282.404 94.373 283.108 93.589 284.004 93.045C284.916 92.501 285.948 92.229 287.1 92.229ZM287.94 94.629C286.724 94.629 285.748 95.021 285.012 95.805C284.292 96.573 283.932 97.637 283.932 98.997C283.932 100.357 284.292 101.429 285.012 102.213C285.748 102.981 286.724 103.365 287.94 103.365C288.708 103.365 289.396 103.189 290.004 102.837C290.612 102.469 291.092 101.957 291.444 101.301C291.796 100.645 291.972 99.877 291.972 98.997C291.972 98.133 291.796 97.373 291.444 96.717C291.092 96.045 290.612 95.533 290.004 95.181C289.396 94.813 288.708 94.629 287.94 94.629ZM305.383 92.181C306.919 92.181 308.151 92.677 309.079 93.669C310.007 94.661 310.471 96.077 310.471 97.917V105.621H307.735V98.205C307.735 97.021 307.431 96.109 306.823 95.469C306.215 94.813 305.383 94.485 304.327 94.485C303.239 94.485 302.367 94.837 301.711 95.541C301.055 96.229 300.727 97.245 300.727 98.589V105.621H297.991V92.397H300.727V95.301C301.079 94.309 301.671 93.541 302.503 92.997C303.335 92.453 304.295 92.181 305.383 92.181ZM326.856 88.509C328.936 88.509 330.664 89.037 332.04 90.093C333.416 91.149 334.344 92.581 334.824 94.389H331.92C331.52 93.365 330.88 92.557 330 91.965C329.136 91.357 328.072 91.053 326.808 91.053C325.8 91.053 324.896 91.301 324.096 91.797C323.312 92.293 322.688 93.005 322.224 93.933C321.776 94.845 321.552 95.917 321.552 97.149C321.552 98.365 321.776 99.437 322.224 100.365C322.688 101.277 323.312 101.981 324.096 102.477C324.896 102.973 325.8 103.221 326.808 103.221C328.072 103.221 329.136 102.925 330 102.333C330.88 101.725 331.52 100.917 331.92 99.909H334.824C334.344 101.717 333.416 103.149 332.04 104.205C330.664 105.245 328.936 105.765 326.856 105.765C325.256 105.765 323.84 105.405 322.608 104.685C321.376 103.949 320.424 102.933 319.752 101.637C319.08 100.325 318.744 98.829 318.744 97.149C318.744 95.469 319.08 93.981 319.752 92.685C320.424 91.373 321.376 90.349 322.608 89.613C323.84 88.877 325.256 88.509 326.856 88.509ZM342.857 92.229C344.057 92.229 345.081 92.525 345.929 93.117C346.777 93.709 347.377 94.493 347.729 95.469V92.397H350.465V105.621H347.729V102.549C347.377 103.525 346.777 104.309 345.929 104.901C345.081 105.493 344.057 105.789 342.857 105.789C341.705 105.789 340.673 105.517 339.761 104.973C338.865 104.429 338.161 103.645 337.649 102.621C337.137 101.597 336.881 100.389 336.881 98.997C336.881 97.621 337.137 96.421 337.649 95.397C338.161 94.373 338.865 93.589 339.761 93.045C340.673 92.501 341.705 92.229 342.857 92.229ZM343.697 94.629C342.481 94.629 341.505 95.021 340.769 95.805C340.049 96.573 339.689 97.637 339.689 98.997C339.689 100.357 340.049 101.429 340.769 102.213C341.505 102.981 342.481 103.365 343.697 103.365C344.465 103.365 345.153 103.189 345.761 102.837C346.369 102.469 346.849 101.957 347.201 101.301C347.553 100.645 347.729 99.877 347.729 98.997C347.729 98.133 347.553 97.373 347.201 96.717C346.849 96.045 346.369 95.533 345.761 95.181C345.153 94.813 344.465 94.629 343.697 94.629ZM359.917 89.661C358.845 89.613 358.093 89.789 357.661 90.189C357.229 90.573 357.013 91.237 357.013 92.181V92.397H359.917V94.749H357.013V105.621H354.253V94.749H352.453V92.397H354.253V91.965C354.253 90.349 354.725 89.141 355.669 88.341C356.613 87.525 358.029 87.165 359.917 87.261V89.661ZM374.404 98.373C374.404 98.821 374.372 99.213 374.308 99.549H364.132C364.18 100.909 364.556 101.917 365.26 102.573C365.964 103.229 366.836 103.557 367.876 103.557C368.788 103.557 369.556 103.325 370.18 102.861C370.82 102.397 371.212 101.781 371.356 101.013H374.284C374.108 101.941 373.74 102.765 373.18 103.485C372.62 104.205 371.892 104.773 370.996 105.189C370.1 105.589 369.1 105.789 367.996 105.789C366.716 105.789 365.58 105.517 364.588 104.973C363.612 104.429 362.844 103.645 362.284 102.621C361.724 101.597 361.444 100.389 361.444 98.997C361.444 97.621 361.724 96.421 362.284 95.397C362.844 94.373 363.612 93.589 364.588 93.045C365.58 92.501 366.716 92.229 367.996 92.229C369.292 92.229 370.42 92.501 371.38 93.045C372.356 93.573 373.1 94.309 373.612 95.253C374.14 96.181 374.404 97.221 374.404 98.373ZM371.644 98.301C371.676 97.437 371.524 96.717 371.188 96.141C370.868 95.549 370.42 95.117 369.844 94.845C369.284 94.557 368.668 94.413 367.996 94.413C366.924 94.413 366.028 94.741 365.308 95.397C364.588 96.053 364.196 97.021 364.132 98.301H371.644Z" fill="black"/>
</g>
<defs>
<clipPath id="clip0">
<rect width="468" height="120" fill="white"/>
</clipPath>
</defs>
</svg>
