<?xml version="1.0" encoding="iso-8859-1"?>
<!-- Generator: Adobe Illustrator 22.1.0, SVG Export Plug-In . SVG Version: 6.00 Build 0)  -->
<svg xmlns="http://www.w3.org/2000/svg" xmlns:xlink="http://www.w3.org/1999/xlink" version="1.1" id="Layer_1_1_" x="0px" y="0px" viewBox="0 0 64 64" style="enable-background:new 0 0 64 64;" xml:space="preserve" width="512" height="512">
<g>
	<path d="M46.665,51.708l0.67,1.885C50.125,52.601,52,49.952,52,47v-0.17c0-1.296-0.359-2.565-1.038-3.667L47.44,37.44l-1.703,1.048   l3.521,5.723C49.744,44.999,50,45.904,50,46.83V47C50,49.107,48.66,50.999,46.665,51.708z"/>
	<path d="M63,46.869c0-4.586-2.442-8.901-6.375-11.26c-2.539-1.523-4.641-3.697-6.079-6.284l-2.52-4.537   c0.065-2.526,0.599-4.981,1.629-7.297l2.26-5.084l-1.828-0.812l-2.26,5.084C46.614,19.405,46,22.301,46,25.285   c0,3.923,1.087,7.764,3.144,11.106l3.521,5.722C53.538,43.533,54,45.164,54,46.831V47c0,4.962-4.037,9-9,9s-9-4.038-9-9v-0.169   c0-1.667,0.462-3.297,1.335-4.717l3.521-5.722C42.913,33.049,44,29.208,44,25.285c0-2.984-0.614-5.88-1.826-8.607l-2.26-5.084   l-1.828,0.812l2.26,5.084c1.03,2.317,1.564,4.771,1.629,7.297l-2.52,4.536c-0.065,0.117-0.138,0.228-0.205,0.342   c-0.713-1.071-1.538-2.063-2.493-2.945l-3.871-3.574c-2.72-2.51-5.065-5.394-6.973-8.57c-0.275-0.458-0.516-0.932-0.771-1.4   c1.413-2.763,2.514-5.675,3.269-8.695l0.56-2.24L27.03,1.758l-0.56,2.239C25.874,6.383,25.031,8.69,24,10.913   c-1.031-2.223-1.874-4.53-2.471-6.915l-0.56-2.24L19.03,2.242l0.56,2.24c0.755,3.02,1.856,5.931,3.269,8.694   c-0.255,0.468-0.497,0.943-0.771,1.4c-1.907,3.177-4.253,6.06-6.973,8.57l-3.87,3.574C7.911,29.797,6,34.163,6,38.699   c0,0.108,0.011,0.213,0.014,0.321c-0.27,0.02-0.534,0.057-0.791,0.115C3.763,35.594,3,31.784,3,27.938V27H1v0.938   c0,4.118,0.819,8.197,2.386,11.987C1.948,40.897,1,42.543,1,44.407v0.051c0,0.443,0.055,0.885,0.162,1.311   c1.26,5.042,4.243,9.536,8.401,12.653C13.499,61.374,18.376,63,23.296,63c2.578,0,5.109-0.459,7.522-1.364l3.727-1.397   c0.508-0.191,0.9-0.57,1.154-1.028c0.749,0.272,1.518,0.462,2.301,0.592V63h14v-3.189C58.228,58.788,63,53.382,63,46.869z    M41.429,29.888c-0.473,1.915-1.231,3.758-2.275,5.456l-3.521,5.722C34.564,42.8,34,44.794,34,46.831V47   c0,5.099,3.492,9.386,8.207,10.627C41.556,57.868,40.859,58,40.131,58c-1.521,0-3.001-0.325-4.411-0.939   c-0.347-0.636-0.988-1.09-1.762-1.16l-0.346-0.031C30.725,53.774,29,50.433,29,46.869c0-3.888,2.07-7.545,5.404-9.545   c2.839-1.703,5.189-4.133,6.798-7.028L41.429,29.888z M25.699,45h-3.398C18.826,45,16,42.173,16,38.699   c0-1.754,0.738-3.441,2.027-4.629l3.87-3.573c0.719-0.663,1.423-1.354,2.103-2.061c0.683,0.711,1.387,1.402,2.102,2.061   l3.872,3.573c0.812,0.749,1.391,1.697,1.72,2.749c-0.625,0.527-1.197,1.108-1.709,1.735c-0.039-1.144-0.525-2.237-1.368-3.014   c0,0-3.918-3.617-3.941-3.638l-0.675-0.618L23.326,31.9c-0.022,0.021-3.943,3.64-3.943,3.64c-0.302,0.278-0.561,0.597-0.77,0.947   l1.717,1.025c0.111-0.186,0.248-0.354,0.409-0.502c0,0,2.135-1.971,3.261-3.011l3.261,3.01C27.73,37.443,28,38.059,28,38.699   C28,39.968,26.968,41,25.699,41h-3.398c-1.179,0-2.185-0.918-2.291-2.09l-1.992,0.181c0.199,2.192,2.08,3.91,4.283,3.91h3.398   c0.76,0,1.465-0.215,2.085-0.563c-0.276,0.766-0.482,1.558-0.612,2.368C26.691,44.921,26.201,45,25.699,45z M30.296,55.558   c-3.978-0.415-7.804-1.834-11.081-4.128c-0.665-0.465-1.302-0.97-1.916-1.503c1.53,0.685,3.22,1.074,5.002,1.074h3.398   c0.651,0,1.299-0.067,1.94-0.169C28.192,52.569,29.083,54.185,30.296,55.558z M12.602,28.191l3.871-3.574   c2.858-2.639,5.325-5.671,7.33-9.011c0.07-0.117,0.128-0.24,0.197-0.358c0.069,0.118,0.127,0.241,0.197,0.358   c2.005,3.34,4.472,6.372,7.33,9.011l3.871,3.574c1.042,0.962,1.919,2.064,2.629,3.278c-0.437,0.562-0.907,1.097-1.41,1.599   c-0.658-1.275-1.524-2.437-2.575-3.408l-3.872-3.573c-1.965-1.814-3.771-3.825-5.367-5.979L24,19.024l-0.804,1.084   c-1.594,2.151-3.399,4.163-5.368,5.979l-0.141,0.13l1.357,1.469l0.14-0.129c1.736-1.602,3.352-3.349,4.815-5.207   c1.466,1.859,3.081,3.606,4.814,5.207l3.872,3.573c1.005,0.928,1.806,2.065,2.375,3.316c-0.531,0.414-1.085,0.799-1.665,1.148   c-0.457-1.136-1.159-2.156-2.067-2.994l-3.872-3.574c-0.935-0.862-1.851-1.78-2.722-2.728L24,25.496l-0.736,0.802   c-0.865,0.942-1.781,1.86-2.723,2.729l-3.87,3.573C14.974,34.165,14,36.388,14,38.699C14,43.276,17.724,47,22.301,47h3.398   c0.439,0,0.873-0.036,1.302-0.104c0.001,0.672,0.071,1.332,0.173,1.986C26.687,48.952,26.194,49,25.699,49h-3.398   C16.621,49,12,44.379,12,38.699c0-2.867,1.208-5.625,3.314-7.569l2.26-2.086l-1.357-1.47l-2.259,2.086   C11.442,31.981,10,35.275,10,38.699c0,0.619,0.061,1.222,0.149,1.817c-0.602-0.579-1.33-1.008-2.126-1.259   C8.016,39.071,8,38.887,8,38.699C8,34.719,9.677,30.889,12.602,28.191z M3,44.407c0-1.05,0.487-1.978,1.237-2.604   c0.282,0.572,0.578,1.138,0.895,1.693l1.736-0.992c-0.276-0.483-0.531-0.975-0.778-1.472C6.196,41.022,6.299,41,6.407,41   c1.236,0,2.378,0.671,2.979,1.752L10.079,44H8.279l-0.912,2.735l-3-1L3.793,47.46c-0.265-0.713-0.506-1.435-0.691-2.177   C3.034,45.014,3,44.737,3,44.458V44.407z M33.842,58.367l-3.726,1.396c-6.388,2.396-13.89,1.156-19.354-2.941   c-2.386-1.789-4.346-4.077-5.759-6.672l0.629-1.885l3,1L9.721,46h1.543c1.789,2.76,4.113,5.184,6.805,7.068   c3.646,2.553,7.92,4.116,12.355,4.52l3.353,0.305C33.903,57.904,34,58.01,34,58.137C34,58.239,33.936,58.332,33.842,58.367z M50,61   H40v-1.009C40.058,59.991,40.114,60,40.172,60c1.775,0,3.456-0.592,4.828-1.673C46.373,59.408,48.059,60,49.869,60   c0.044,0,0.087-0.006,0.131-0.007V61z M49.828,58c-0.708,0-1.395-0.132-2.039-0.372C52.506,56.389,56,52.1,56,47v-0.169   c0-2.037-0.564-4.03-1.632-5.765l-3.521-5.722c-1.044-1.698-1.802-3.54-2.275-5.455l0.226,0.407   c1.608,2.894,3.959,5.324,6.798,7.028c3.334,2,5.404,5.657,5.404,9.545C61,53.006,56.007,58,49.828,58z"/>
</g>
</svg>
