<svg width="107" height="98" viewBox="0 0 107 98" fill="none" xmlns="http://www.w3.org/2000/svg">
<path d="M54.0634 9.48926H52.3425V11.0708H54.0634V9.48926Z" fill="white"/>
<path d="M47.1798 9.48926H45.459V11.0708H47.1798V9.48926Z" fill="white"/>
<path d="M40.2248 9.48926H38.5039V11.0708H40.2248V9.48926Z" fill="white"/>
<path d="M67.902 9.48926H66.1812V11.0708H67.902V9.48926Z" fill="white"/>
<path d="M61.0185 9.48926H59.2976V11.0708H61.0185V9.48926Z" fill="white"/>
<path d="M48.0404 17.397H46.3196V18.9785H48.0404V17.397Z" fill="white"/>
<path d="M60.1581 17.397H58.4373V18.9785H60.1581V17.397Z" fill="white"/>
<path d="M54.0634 22.9983H52.3425V24.5798H54.0634V22.9983Z" fill="white"/>
<path d="M75.6457 6.3262V3.95387C75.6457 1.77924 73.7098 0 71.3436 0H35.0623C32.6961 0 30.7602 1.77924 30.7602 3.95387V6.3262H29.0393V7.90774H32.6961L39.5078 27.4135C40.0097 28.9292 41.4438 29.9835 43.1646 30.1153L40.1531 49.2257H66.3244L63.3129 30.1153C64.9621 29.9176 66.3961 28.9292 66.9697 27.4135L73.7815 7.90774H77.4383V6.3262H75.6457V6.3262ZM36.7831 14.2339H40.5834L38.504 19.2422L36.7831 14.2339ZM41.157 26.8863L39.3644 21.6804L41.157 17.2652L45.8893 28.5338H43.5948C42.5193 28.5338 41.5155 27.8748 41.157 26.8863ZM62.0223 33.2784L62.811 38.0231H43.6665L44.4553 33.2784H58.4372V31.6969H44.6704L44.9572 30.1153H61.5921L61.8789 31.6969H60.2297V33.2784H62.0223ZM58.4372 41.1862L60.0146 43.6244H56.8597L58.4372 41.1862ZM55.7842 42.1087L54.2068 39.6705H57.3617L55.7842 42.1087ZM48.0404 41.1862L49.6178 43.6244H46.4629L48.0404 41.1862ZM45.4591 42.1087L43.8817 39.6705H47.0365L45.4591 42.1087ZM58.007 28.5338H48.3989L53.2029 17.1993L58.007 28.5338ZM53.7766 14.2339H64.6753L59.2976 27.1499L53.7766 14.2339ZM47.18 27.1499L41.7306 14.2339H52.6293L47.18 27.1499ZM43.7382 47.5783H42.1608L42.5193 45.2059H43.7382V47.5783ZM42.7344 43.6244L43.0929 41.5815L44.4553 43.6244H42.7344ZM47.18 47.5783H45.4591V45.2059H47.18V47.5783ZM50.6217 47.5783H48.9008V45.2059H50.6217V47.5783ZM49.0442 39.6705H52.1991L50.6217 42.1087L49.0442 39.6705ZM54.0634 47.5783H52.3425V45.2059H54.0634V47.5783ZM51.6255 43.6244L53.2029 41.1862L54.7804 43.6244H51.6255ZM57.5051 47.5783H55.7842V45.2059H57.5051V47.5783ZM61.0185 47.5783H59.2976V45.2059H61.0185V47.5783ZM59.441 39.6705H62.5959L61.0185 42.1087L59.441 39.6705ZM64.3168 47.5783H62.7393V45.2059H63.9583L64.3168 47.5783ZM63.3846 41.5815L63.7432 43.6244H62.094L63.3846 41.5815ZM65.2489 26.8863C64.8904 27.8748 63.8866 28.5338 62.811 28.5338H60.5166L65.3206 17.2652L67.1132 21.6804L65.2489 26.8863ZM67.9736 19.2422L65.9659 14.2998H69.7661L67.9736 19.2422ZM70.268 12.6524H36.2095L34.5604 7.90774H71.9172L70.268 12.6524ZM73.9249 6.3262H32.481V3.95387C32.481 2.63591 33.6282 1.58155 35.0623 1.58155H71.3436C72.7776 1.58155 73.9249 2.63591 73.9249 3.95387V6.3262Z" fill="white"/>
<path d="M53.203 97.9243C82.6009 97.9243 106.406 76.0462 106.406 49.0281H0C0 76.0462 23.8051 97.9243 53.203 97.9243Z" fill="white"/>
<path d="M68.1171 62.9325C61.0902 58.781 59.3694 55.9474 60.66 49.0281H57.9353C57.5768 55.2884 57.7202 61.2192 66.1811 64.6459C64.7471 65.5684 63.8866 66.1615 62.3092 67.2159C59.6562 64.2505 57.1466 61.351 54.4936 58.5174C54.0634 58.0561 53.4898 57.3971 53.0596 57.463C52.4143 57.5948 51.769 58.122 51.3387 58.6492C48.6858 61.4828 46.1045 64.3164 43.3798 67.2818C41.8024 66.0956 40.9419 65.5025 40.0815 64.8436C47.6819 59.2422 48.399 58.0561 47.897 51.664C47.8253 50.8732 46.9649 50.0824 46.3913 49.3576C45.8894 49.4235 45.4592 49.4894 44.9573 49.4894C46.8215 56.6063 42.8779 60.4284 36.9266 63.3938C34.1302 64.7777 31.4055 66.5569 29.2545 68.6656C27.5336 70.379 26.6732 72.949 25.3826 75.1236C25.8128 75.3872 26.243 75.6508 26.6732 75.9803C27.3902 75.519 28.179 75.1236 28.7526 74.5306C30.6168 72.3559 32.266 70.0495 34.3453 68.0067C36.4247 65.8979 38.5041 66.3592 40.0098 68.4021C38.7192 70.7085 37.5002 72.949 36.2096 75.1236C36.7115 75.4531 37.1417 75.7167 37.6436 76.0462C39.1494 74.3988 40.5834 72.7513 42.1609 71.038C45.029 75.5849 45.029 75.5849 47.0366 75.0577C46.2479 73.0149 45.5309 70.9721 44.6704 68.7974C45.746 68.0067 46.8215 67.2818 48.6858 65.9638C49.6896 68.8633 50.4783 71.3016 51.4104 73.6739C51.6973 74.3988 52.4143 75.0577 52.9879 75.7167C53.4898 74.9918 54.1351 74.3329 54.4936 73.5421C55.4258 71.1698 56.2145 68.7315 57.1466 66.0297C58.4373 66.8864 59.0109 67.2818 59.5845 67.6113C60.1581 68.0067 60.7317 68.3362 60.9468 68.4679C60.0147 71.1039 59.226 73.1467 58.3656 75.519C62.9545 76.178 60.8751 71.4992 64.03 71.1039C64.6754 71.9605 65.3207 73.0149 66.1094 73.8716C66.7547 74.5964 67.6151 75.2554 68.4039 75.9144C68.8341 75.5849 69.1926 75.3213 69.6228 74.9918C68.3322 72.7513 67.0415 70.5767 65.3207 67.7431C66.9698 67.4795 69.0492 66.491 69.7662 67.0182C72.4192 69.061 74.5702 71.6311 76.8647 74.0034C77.51 74.6624 78.2271 75.3213 78.8724 75.9803C79.3743 75.6508 79.8762 75.3213 80.3781 74.9259C79.0875 72.7513 78.1554 70.2472 76.2911 68.5338C73.9966 66.2933 70.9851 64.6459 68.1171 62.9325ZM52.9162 68.2703C52.0558 67.0182 51.3387 65.9638 50.4066 64.6459C51.1236 63.7892 51.9124 62.8666 52.8445 61.8123C53.8483 62.9325 54.5653 63.6574 55.3541 64.5141C54.637 65.7661 53.7766 66.9523 52.9162 68.2703Z" fill="#FFA33F"/>
</svg>
