<svg xmlns="http://www.w3.org/2000/svg" viewBox="0 0 76.08 76.21"><defs><style>.cls-1{fill:#fff;}</style></defs><title>Asset 3</title><g id="Layer_2" data-name="Layer 2"><g id="Layer_1-2" data-name="Layer 1"><rect class="cls-1" x="37.42" y="7.41" width="1.24" height="1.24"/><rect class="cls-1" x="32.48" y="7.41" width="1.24" height="1.24"/><rect class="cls-1" x="27.54" y="7.41" width="1.24" height="1.24"/><rect class="cls-1" x="47.3" y="7.41" width="1.24" height="1.24"/><rect class="cls-1" x="42.36" y="7.41" width="1.24" height="1.24"/><rect class="cls-1" x="33.1" y="13.59" width="1.24" height="1.24"/><rect class="cls-1" x="41.75" y="13.59" width="1.24" height="1.24"/><rect class="cls-1" x="37.42" y="17.91" width="1.24" height="1.24"/><path class="cls-1" d="M54.1,4.94V3.09A3.1,3.1,0,0,0,51,0H25.07A3.1,3.1,0,0,0,22,3.09V4.94H20.75V6.18h2.64l4.87,15.14a3,3,0,0,0,2.59,2.12L28.68,38.29H47.4L45.23,23.44a3.07,3.07,0,0,0,2.6-2.12L52.7,6.18h2.63V4.94ZM26.27,11.12H29L27.52,15ZM29.43,21l-1.3-4.07,1.28-3.42,3.41,8.77H31.2A1.85,1.85,0,0,1,29.43,21Zm14.92,5,.54,3.7H31.19l.55-3.7h10V24.7H31.92l.18-1.23H44l.19,1.23H43v1.24Zm-2.6,6.14L42.88,34H40.61Zm-1.86.68-1.13-1.88H41Zm-5.55-.68L35.47,34H33.2Zm-1.86.68-1.13-1.88h2.27Zm9-10.53H34.62L38,13.44Zm-3-11.11h7.8l-3.9,10Zm-4.74,10-3.9-10h7.8Zm-2.47,15.9H30.11l.27-1.85h.87ZM30.56,34l.24-1.61,1,1.61Zm3.16,3.08H32.48V35.2h1.24Zm2.47,0H35V35.2h1.24Zm-1.13-6.17h2.26l-1.13,1.88Zm3.6,6.17H37.42V35.2h1.24ZM36.91,34,38,32.08,39.17,34Zm4.22,3.08H39.89V35.2h1.24Zm2.47,0H42.36V35.2H43.6Zm-1.13-6.17h2.26L43.6,32.76ZM46,37.05H44.83V35.2h.87Zm-.68-4.69L45.52,34h-1.2ZM46.65,21a1.85,1.85,0,0,1-1.76,1.28H43.27l3.41-8.77L48,16.88Zm1.92-6-1.45-3.86h2.69Zm1.64-5.1H25.88l-1.2-3.7H51.4Zm2.65-4.94H23.22V3.09a1.85,1.85,0,0,1,1.85-1.85H51a1.85,1.85,0,0,1,1.85,1.85Z"/><path class="cls-1" d="M38,76.21a38,38,0,0,0,38-38H0A38,38,0,0,0,38,76.21Z"/><path d="M48.69,49c-5-3.23-6.25-5.45-5.34-10.81h-2c-.25,4.86-.16,9.49,5.89,12.13l-2.76,2C42.63,50,40.81,47.75,39,45.53c-.28-.35-.74-.87-1-.82a2.55,2.55,0,0,0-1.24.92C34.8,47.82,33,50.05,31,52.36l-2.37-1.91c5.42-4.36,6-5.3,5.59-10.24,0-.63-.69-1.21-1-1.82l-1,.12C33.5,44,30.64,47,26.41,49.35A21.46,21.46,0,0,0,21,53.46c-1.26,1.36-1.86,3.32-2.75,5l.9.65A8.12,8.12,0,0,0,20.58,58c1.36-1.67,2.53-3.49,4-5.07s3-1.26,4.05.33c-.93,1.81-1.81,3.53-2.7,5.25l1,.72C28,57.92,29,56.64,30.13,55.29c2.05,3.53,2.05,3.53,3.48,3.11-.55-1.59-1.09-3.16-1.67-4.86l2.87-2.2c.72,2.24,1.27,4.14,1.94,6a7.71,7.71,0,0,0,1.12,1.6,9.36,9.36,0,0,0,1.06-1.67c.67-1.85,1.23-3.74,1.91-5.84.93.65,1.34.95,1.76,1.23l1,.66c-.68,2-1.22,3.66-1.83,5.47,3.28.52,1.82-3.14,4-3.44.45.67.9,1.47,1.47,2.17A17.59,17.59,0,0,0,48.9,59.1l.87-.72-3.05-5.63c1.15-.23,2.65-1,3.15-.54A59.39,59.39,0,0,1,55,57.62c.47.52,1,1,1.45,1.53l1.07-.8c-.94-1.69-1.59-3.66-2.9-5A32.89,32.89,0,0,0,48.69,49ZM37.84,53.12c-.61-1-1.15-1.8-1.79-2.82l1.76-2.19,1.8,2.13C39,51.18,38.46,52.1,37.84,53.12Z"/></g></g></svg>