<svg xmlns="http://www.w3.org/2000/svg" viewBox="0 0 423.36 114.83"><defs><style>.cls-1{font-size:98.21px;font-family:Futura-Medium, Futura;font-weight:500;}.cls-1,.cls-5{fill:#fff;}.cls-2{letter-spacing:-0.02em;}.cls-3{letter-spacing:-0.03em;}.cls-4{letter-spacing:0em;}</style></defs><title>Asset 2</title><g id="Layer_2" data-name="Layer 2"><g id="Layer_1-2" data-name="Layer 1"><text class="cls-1" transform="translate(88.49 86.49)"><tspan class="cls-2">R</tspan><tspan x="57.45" y="0">O</tspan><tspan class="cls-3" x="145.21" y="0">O</tspan><tspan class="cls-4" x="230.33" y="0">T</tspan><tspan x="277.61" y="0">S</tspan></text><rect class="cls-5" x="37.42" y="18.69" width="1.24" height="1.24"/><rect class="cls-5" x="32.48" y="18.69" width="1.24" height="1.24"/><rect class="cls-5" x="27.54" y="18.69" width="1.24" height="1.24"/><rect class="cls-5" x="47.3" y="18.69" width="1.24" height="1.24"/><rect class="cls-5" x="42.36" y="18.69" width="1.24" height="1.24"/><rect class="cls-5" x="33.1" y="24.87" width="1.24" height="1.24"/><rect class="cls-5" x="41.75" y="24.87" width="1.24" height="1.24"/><rect class="cls-5" x="37.42" y="29.19" width="1.24" height="1.24"/><path class="cls-5" d="M54.1,16.22V14.37A3.1,3.1,0,0,0,51,11.28H25.07A3.1,3.1,0,0,0,22,14.37v1.85H20.75v1.24h2.64l4.87,15.15a3,3,0,0,0,2.59,2.11L28.68,49.57H47.4L45.23,34.72a3.07,3.07,0,0,0,2.6-2.12L52.7,17.46h2.63V16.22ZM26.27,22.4H29l-1.45,3.87Zm3.16,9.83-1.3-4.07,1.28-3.41,3.41,8.76H31.2A1.85,1.85,0,0,1,29.43,32.23Zm14.92,5,.54,3.7H31.19l.55-3.7h10V36H31.92l.18-1.23H44L44.17,36H43v1.24Zm-2.6,6.14,1.13,1.89H40.61Zm-1.86.69-1.13-1.89H41Zm-5.55-.69,1.13,1.89H33.2Zm-1.86.69-1.13-1.89h2.27Zm9-10.54H34.62L38,24.72Zm-3-11.11h7.8l-3.9,10Zm-4.74,10-3.9-10h7.8Zm-2.47,15.9H30.11l.27-1.85h.87Zm-.69-3.08.24-1.61,1,1.61Zm3.16,3.08H32.48V46.48h1.24Zm2.47,0H35V46.48h1.24Zm-1.13-6.17h2.26l-1.13,1.89Zm3.6,6.17H37.42V46.48h1.24Zm-1.75-3.08L38,43.36l1.13,1.89Zm4.22,3.08H39.89V46.48h1.24Zm2.47,0H42.36V46.48H43.6Zm-1.13-6.17h2.26L43.6,44.05ZM46,48.33H44.83V46.48h.87Zm-.68-4.69.23,1.61h-1.2Zm1.36-11.41a1.85,1.85,0,0,1-1.76,1.28H43.27l3.41-8.76L48,28.16Zm1.92-6L47.12,22.4h2.69Zm1.64-5.11H25.88l-1.2-3.7H51.4Zm2.65-4.94H23.22V14.37a1.85,1.85,0,0,1,1.85-1.85H51a1.85,1.85,0,0,1,1.85,1.85Z"/><path class="cls-5" d="M38,87.49a38,38,0,0,0,38-38H0A38,38,0,0,0,38,87.49Z"/><path d="M48.69,60.25c-5-3.23-6.25-5.45-5.34-10.8h-2c-.25,4.85-.16,9.48,5.89,12.12l-2.76,2C42.63,61.28,40.81,59,39,56.81c-.28-.34-.74-.87-1-.82a2.55,2.55,0,0,0-1.24.92C34.8,59.11,33,61.34,31,63.64l-2.37-1.91c5.42-4.36,6-5.3,5.59-10.24,0-.63-.69-1.21-1-1.82l-1,.13c1.35,5.52-1.51,8.49-5.74,10.83A21.46,21.46,0,0,0,21,64.74c-1.26,1.36-1.86,3.32-2.75,5l.9.65a7.33,7.33,0,0,0,1.48-1.15c1.36-1.66,2.53-3.49,4-5.07s3-1.26,4.05.33c-.93,1.81-1.81,3.53-2.7,5.25l1,.73,3.21-3.91c2.05,3.52,2.05,3.52,3.48,3.1-.55-1.58-1.09-3.16-1.67-4.86l2.87-2.19c.72,2.23,1.27,4.13,1.94,6a7.71,7.71,0,0,0,1.12,1.6,9.36,9.36,0,0,0,1.06-1.67c.67-1.85,1.23-3.74,1.91-5.84.93.65,1.34.95,1.76,1.23s.83.56,1,.66c-.68,2-1.22,3.66-1.83,5.47,3.28.52,1.82-3.14,4-3.44.45.67.9,1.47,1.47,2.17a17.59,17.59,0,0,0,1.64,1.59l.87-.72L46.72,64c1.15-.22,2.65-1,3.15-.54A59.39,59.39,0,0,1,55,68.9c.47.52,1,1,1.45,1.53l1.07-.8c-.94-1.69-1.59-3.66-2.9-5A32.89,32.89,0,0,0,48.69,60.25ZM37.84,64.4c-.61-1-1.15-1.8-1.79-2.82l1.76-2.19,1.8,2.13Z"/></g></g></svg>