<svg width="114" height="114" viewBox="0 0 114 114" fill="none" xmlns="http://www.w3.org/2000/svg">
<g clip-path="url(#clip0)">
<path d="M0 113.999H51.818V62.1807H0V113.999ZM10.3628 72.5452H41.4541V103.556H10.3628V72.5452Z" fill="#D6D6D6"/>
<path d="M31.0904 82.9078H20.7271V93.2726H31.0904V82.9078Z" fill="#D6D6D6"/>
<path d="M93.2729 103.636H82.907V114H93.2729V103.636Z" fill="#D6D6D6"/>
<path d="M114 103.636H103.635V114H114V103.636Z" fill="#D6D6D6"/>
<path d="M103.636 72.5452H93.2728V62.1807H62.1807V113.999H72.5452V82.908H82.9071V93.2728H113.999V62.1807H103.636V72.5452Z" fill="#D6D6D6"/>
<path d="M0 51.8192H51.818V0H0V51.8192ZM10.3628 10.3628H41.4541V41.4541H10.3628V10.3628Z" fill="#D6D6D6"/>
<path d="M31.0904 20.7268H20.7271V31.091H31.0904V20.7268Z" fill="#D6D6D6"/>
<path d="M62.1807 0V51.8192H114V0H62.1807ZM103.636 41.4541H72.5452V10.3628H103.636V41.4541V41.4541Z" fill="#D6D6D6"/>
<path d="M93.2729 20.7268H82.907V31.091H93.2729V20.7268Z" fill="#D6D6D6"/>
</g>
<defs>
<clipPath id="clip0">
<rect width="114" height="114" fill="white"/>
</clipPath>
</defs>
</svg>
