<svg width="31" height="10" viewBox="0 0 31 10" fill="none" xmlns="http://www.w3.org/2000/svg">
<path d="M14.1772 9.81628C15.1803 10.2787 16.3684 9.84044 16.8309 8.83734C17.2933 7.83424 16.855 6.64618 15.8519 6.18372L14.1772 9.81628ZM2.83734 0.183724C1.83424 -0.278727 0.646175 0.159557 0.183724 1.16266C-0.278727 2.16576 0.159557 3.35382 1.16266 3.81628L2.83734 0.183724ZM29.8373 3.81628C30.8404 3.35383 31.2787 2.16576 30.8163 1.16266C30.3538 0.159557 29.1658 -0.278727 28.1627 0.183724L29.8373 3.81628ZM15.1481 6.18372C14.145 6.64618 13.7067 7.83424 14.1691 8.83734C14.6316 9.84044 15.8197 10.2787 16.8228 9.81628L15.1481 6.18372ZM15.8519 6.18372L2.83734 0.183724L1.16266 3.81628L14.1772 9.81628L15.8519 6.18372ZM28.1627 0.183724L15.1481 6.18372L16.8228 9.81628L29.8373 3.81628L28.1627 0.183724Z" fill="#2D2D2D"/>
</svg>
