<svg width="161" height="161" viewBox="0 0 161 161" fill="none" xmlns="http://www.w3.org/2000/svg">
<path d="M150.938 55.3435H130.41L103.234 23.6375C99.6128 19.4219 93.2552 18.9304 89.0443 22.5467C84.8237 26.1629 84.3373 32.5161 87.9535 36.7367L103.902 55.3438H57.0978L73.0465 36.7367C76.6627 32.5161 76.1763 26.1632 71.9557 22.547C67.7448 18.9358 61.3872 19.4273 57.766 23.6378L30.5903 55.3435H10.0625C4.50548 55.3435 0 59.849 0 65.406C0 70.963 4.50548 75.4685 10.0625 75.4685H10.1732C10.1732 75.7829 10.0848 76.016 10.1314 76.2936L18.7936 128.262C20.0071 135.568 26.2669 140.875 33.6811 140.875H127.319C134.733 140.875 140.993 135.568 142.207 128.262L150.869 76.2939C150.915 76.0163 150.827 75.7833 150.827 75.4688H150.938C156.495 75.4688 161 70.9633 161 65.4063C161 59.8493 156.495 55.3435 150.938 55.3435ZM55.3438 115.718C55.3438 118.499 53.0935 120.749 50.3125 120.749C47.5315 120.749 45.2812 118.499 45.2812 115.718V90.5616C45.2812 87.7806 47.5315 85.5304 50.3125 85.5304C53.0935 85.5304 55.3438 87.7806 55.3438 90.5616V115.718ZM75.4688 115.718C75.4688 118.499 73.2185 120.749 70.4375 120.749C67.6565 120.749 65.4062 118.499 65.4062 115.718V90.5616C65.4062 87.7806 67.6565 85.5304 70.4375 85.5304C73.2185 85.5304 75.4688 87.7806 75.4688 90.5616V115.718ZM95.5938 115.718C95.5938 118.499 93.3435 120.749 90.5625 120.749C87.7815 120.749 85.5312 118.499 85.5312 115.718V90.5616C85.5312 87.7806 87.7815 85.5304 90.5625 85.5304C93.3435 85.5304 95.5938 87.7806 95.5938 90.5616V115.718ZM115.719 115.718C115.719 118.499 113.469 120.749 110.688 120.749C107.906 120.749 105.656 118.499 105.656 115.718V90.5616C105.656 87.7806 107.906 85.5304 110.688 85.5304C113.469 85.5304 115.719 87.7806 115.719 90.5616V115.718Z" fill="#FFA33F"/>
</svg>
