<svg height="682pt" viewBox="-21 -75 682.49873 682" width="682pt" xmlns="http://www.w3.org/2000/svg"><path d="m344.832031 445.570312h-18.742187v-18.742187h18.742187zm-31.238281 0h-18.738281v-18.742187h18.738281zm0 0"/><path d="m639.84375 202.992188c0-113.773438-92.5625-206.335938-206.332031-206.335938-105.175781 0-192.214844 79.101562-204.769531 180.933594l-26.472657-17.691406c-14.03125-9.371094-29.382812-15.976563-45.734375-19.675782v-44.335937h-57.25v44.335937c-16.347656 3.699219-31.699218 10.304688-45.734375 19.679688l-42.734375 28.558594 10.53125 7.941406c.765625.582031 15.253906 11.242187 36.519532 9.953125-7.527344 19.546875-9.914063 34.128906-10.039063 34.898437l-2.023437 12.757813 12.753906-2.027344c.839844-.136719 18.671875-3.050781 41.4375-12.675781 9.289062 22.894531 19.828125 37.566406 20.332031 38.257812l7.585937 10.46875 7.585938-10.46875c.496094-.691406 11.035156-15.363281 20.324219-38.257812 22.765625 9.625 40.597656 12.539062 41.441406 12.675781l12.757813 2.027344-2.03125-12.757813c-.125-.769531-2.511719-15.347656-10.039063-34.898437 12.628906.761719 22.863281-2.683594 29.257813-5.730469-.105469 8.757812.296874 17.382812 1.445312 26.988281l-4.433594 2.371094c3.976563 7.433594 7.058594 15.332031 9.210938 23.484375.167968.65625.332031 1.300781.503906 1.949219 16.9375 69.238281-35.847656 135.164062-106.023438 135.164062-60.203124 0-109.171874-48.96875-109.171874-109.171875 0-17.929687 4.445312-35.710937 12.855468-51.425781l-16.519531-8.847656c-9.863281 18.429687-15.078125 39.269531-15.078125 60.273437 0 62.105469 44.492188 114.007813 103.269531 125.523438-15.683593 13.222656-24.734375 32.609375-24.734375 53.0625 0 37.964844 30.875 69.414062 69.417969 69.414062h312.820313c35.097656 0 64.175781-26.1875 68.765624-60.042968h33.175782v-18.738282h-33.175782c-2.945312-21.714844-15.960937-40.261718-34.183593-50.78125 83.652343-26.335937 144.488281-104.621094 144.488281-196.855468zm-454.367188-18.464844-22.5625-8.964844 10.691407 21.796875c6.144531 12.527344 10.113281 24.21875 12.546875 32.789063-18.058594-5.125-29.449219-10.941407-40.9375-16.472657l-3.46875 9.890625c-4.410156 12.585938-9.644532 23.167969-13.832032 30.679688-9.171874-16.457032-13.078124-28.535156-17.300781-40.570313l-9.4375 4.542969c-12.03125 5.789062-23.222656 9.566406-31.496093 11.917969 2.429687-8.574219 6.398437-20.261719 12.535156-32.777344l10.695312-21.796875-22.5625 8.964844c-9.175781 3.644531-17.304687 3.679687-23.644531 2.492187l17.261719-11.535156c14.027344-9.371094 29.585937-15.535156 46.238281-18.320313l7.828125-1.308593v-41.230469h19.765625v41.230469l7.828125 1.308593c16.65625 2.789063 32.210938 8.949219 46.238281 18.316407l17.253907 11.535156c-6.339844 1.1875-14.46875 1.152344-23.640626-2.488281zm68.304688 119.707031c21.351562 37.75 54.238281 68.140625 93.851562 86.347656h-153.128906c30.542969-18.699219 52.675782-49.855469 59.277344-86.347656zm206.992188 105.089844c15.300781 0 29.027343 6.824219 38.324218 17.574219-1.804687-.113282 5.898438-.070313-116.960937-.070313v18.742187h114.882812c7.957031 0 14.425781 6.472657 14.425781 14.425782 0 7.957031-6.46875 14.425781-14.425781 14.425781h-61.160156v18.746094c67.347656 0 61.582031.027343 63.238281-.074219-9.296875 10.75-23.023437 17.574219-38.324218 17.574219h-312.820313c-15.300781 0-29.027344-6.824219-38.328125-17.574219 1.679688.101562-4.386719.074219 73.859375.074219v-18.746094h-71.777344c-7.957031 0-14.429687-6.46875-14.429687-14.425781 0-7.953125 6.472656-14.425782 14.429687-14.425782h136.050781v-18.742187c-145.503906 0-136.324218-.042969-138.132812.070313 9.300781-10.75 23.027344-17.574219 38.328125-17.574219zm95.191406-64.339844c41.417968-79.550781 29.480468-178.707031-35.035156-246.15625l-13.539063 12.957031c64.640625 67.578125 70.699219 168.800782 21.0625 242.929688-7.058594-37.828125-24.695313-73.355469-50.929687-101.886719l-13.792969 12.683594c27.316406 29.710937 44.386719 67.757812 48.480469 107.738281-11.410157 5.296875-23.441407 9.488281-35.953126 12.414062l.28125-.328124c-9.515624-8.171876-22.894531-11.691407-35.835937-15.097657-12.355469-3.253906-25.125-6.609375-30.785156-13.519531-.335938-.410156-.664063-.851562-.972657-1.328125-4.957031-7.648437-2.699218-21.355469-.511718-34.609375 2.191406-13.300781 4.457031-27.054688.859375-39.273438-3.449219-11.699218-12.621094-21.726562-21.492188-31.425781-9.296875-10.164062-18.902343-20.675781-18.902343-30.4375 0-24.953125 34.597656-47.441406 44.828124-75.292969 10.496094-28.574218-.792968-68.382812 14.550782-86.441406 3.027344-3.566406 7.234375-6.464844 12.859375-8.851562l-7.324219-17.253906c-8.378906 3.558593-14.863281 8.132812-19.816406 13.976562-21.289063 25.050781-8.511719 66.644531-17.863282 92.105469-8.894531 24.21875-45.976562 47.835937-45.976562 81.757812 0 28.570313 35.582031 48.246094 41.164062 67.167969 2.382813 8.097656.472657 19.699219-1.378906 30.921875-2.761718 16.773437-5.621094 34.117187 3.300782 47.886719 9.484374 14.46875 27.660156 18.777344 44.421874 23.195312-55.648437-8.265625-102.5625-44.914062-124.046874-97.722656l-17.355469 7.0625c11.894531 29.238281 31.386719 54.789062 56.453125 74.117188-49.15625-23.558594-86.527344-67.914063-100.648438-121.589844-.132812-.539063-.277344-1.074219-.414062-1.613282-3.738282-14.746093-5.734375-30.183593-5.734375-46.082031 0-103.4375 84.152343-187.589843 187.59375-187.589843 103.4375 0 187.589843 84.152343 187.589843 187.589843 0 56.683594-25.273437 107.570313-65.136718 141.996094zm0 0"/><path d="m215.65625 474.421875h177.410156v18.746094h-177.410156zm0 0"/></svg>